<svg width="838" height="506" viewBox="0 0 838 506" fill="none" xmlns="http://www.w3.org/2000/svg">
<rect width="838" height="506" fill="#E5E5E5"/>
<path d="M837 1H1V480C1 480 153.806 439.044 238 458C292.63 470.299 307 510 461 504C615 498 643 448 698 439C753 430 837 480 837 480V1Z" fill="#121212"/>
<path d="M837 1H1V480C1 480 153.806 439.044 238 458C292.63 470.299 307 510 461 504C615 498 643 448 698 439C753 430 837 480 837 480V1Z" stroke="#333333"/>
<path d="M837 1H1V480C1 480 153.806 439.044 238 458C292.63 470.299 307 510 461 504C615 498 643 448 698 439C753 430 837 480 837 480V1Z" stroke="#333333" stroke-opacity="0.2"/>
</svg>
