<svg width="856" height="458" viewBox="0 0 856 458" fill="none" xmlns="http://www.w3.org/2000/svg">
<rect width="856" height="458" fill="#121212"/>
<path d="M855 5.78947L1 1V456C1 456 101.885 352.547 214.5 380.326C327.115 408.105 429.173 470.368 505.423 448.337C581.673 426.305 611 420.558 693.115 361.168C775.231 301.779 855 456 855 456V5.78947Z" fill="#333333"/>
<path d="M855 5.78947L1 1V456C1 456 101.885 352.547 214.5 380.326C327.115 408.105 429.173 470.368 505.423 448.337C581.673 426.305 611 420.558 693.115 361.168C775.231 301.779 855 456 855 456V5.78947Z" stroke="#333333"/>
<path d="M855 5.78947L1 1V456C1 456 101.885 352.547 214.5 380.326C327.115 408.105 429.173 470.368 505.423 448.337C581.673 426.305 611 420.558 693.115 361.168C775.231 301.779 855 456 855 456V5.78947Z" stroke="#333333" stroke-opacity="0.2"/>
</svg>
